<svg width="20" height="20" viewBox="0 0 20 20" fill="none" xmlns="http://www.w3.org/2000/svg">
<g id="Frame 48">
<path id="Rectangle 3 (Stroke)" fill-rule="evenodd" clip-rule="evenodd" d="M14.4114 5.52143L14.364 0.117887L18.3124 0.083252L18.3598 5.48679C18.3655 6.14003 18.3701 6.86525 18.3578 7.4999C18.3467 8.06598 18.3215 8.76875 18.2156 9.25935C17.5652 12.2713 15.1396 13.463 12.9396 13.9583C12.1788 14.1296 11.313 14.1291 10.2123 14.1284C10.1424 14.1284 10.0715 14.1283 9.99969 14.1283C9.92787 14.1283 9.85703 14.1284 9.78713 14.1284C8.68643 14.1291 7.82063 14.1296 7.05979 13.9583C4.85974 13.463 2.43421 12.2713 1.78382 9.25935C1.67788 8.76875 1.65265 8.06598 1.64161 7.4999C1.62924 6.86525 1.63388 6.14003 1.63961 5.48679L1.68701 0.083252L5.63542 0.117887L5.58802 5.52143C5.58226 6.17834 5.57828 6.85138 5.58942 7.42294C5.59499 7.70858 5.60406 7.95216 5.61694 8.14519C5.62865 8.32077 5.64048 8.40418 5.64312 8.42278C5.6437 8.4269 5.64384 8.42784 5.64342 8.42591C5.81299 9.21117 6.33725 9.74828 7.92705 10.1062C8.19984 10.1676 8.58217 10.1798 9.99969 10.1798C11.4172 10.1798 11.7995 10.1676 12.0723 10.1062C13.6621 9.74828 14.1864 9.21117 14.356 8.42591C14.3555 8.42784 14.3557 8.4269 14.3563 8.42278C14.3589 8.40417 14.3707 8.32077 14.3824 8.14519C14.3953 7.95216 14.4044 7.70858 14.41 7.42294C14.4211 6.85138 14.4171 6.17834 14.4114 5.52143Z" fill="url(#paint0_linear_1076_12349)"/>
<rect id="Rectangle 6" x="1.58301" y="16.2065" width="16.8333" height="3.74074" fill="#0029D6"/>
</g>
<defs>
<linearGradient id="paint0_linear_1076_12349" x1="1.66636" y1="0.0832519" x2="18.333" y2="14.1666" gradientUnits="userSpaceOnUse">
<stop stop-color="#404040"/>
<stop offset="1"/>
</linearGradient>
</defs>
</svg>
