<svg width="48" height="31" viewBox="0 0 48 31" fill="none" xmlns="http://www.w3.org/2000/svg">
<path d="M45.913 0H2.08696C0.934362 0 0 0.934362 0 2.08696V28.3826C0 29.5352 0.934362 30.4696 2.08696 30.4696H45.913C47.0656 30.4696 48 29.5352 48 28.3826V2.08696C48 0.934362 47.0656 0 45.913 0Z" fill="#017EF2"/>
<mask id="mask0_1168_8113" style="mask-type:alpha" maskUnits="userSpaceOnUse" x="0" y="0" width="48" height="31">
<path d="M45.913 0H2.08696C0.934362 0 0 0.934362 0 2.08696V28.3826C0 29.5352 0.934362 30.4696 2.08696 30.4696H45.913C47.0656 30.4696 48 29.5352 48 28.3826V2.08696C48 0.934362 47.0656 0 45.913 0Z" fill="#017EF2"/>
</mask>
<g mask="url(#mask0_1168_8113)">
<path d="M143.165 50.0274V88.0697H-11.0908L17.3672 6.26099L143.165 50.0274Z" fill="#ECE3FE"/>
<path d="M143.165 73.6703V88.0697H-26.4746L17.3585 6.26099L143.165 73.6703Z" fill="#D6E3FE"/>
<path d="M125.217 88.0697H-30.7686V69.7045L17.3599 6.26099L125.217 88.0697Z" fill="#B5E3FE"/>
<path d="M95.8203 88.0697H-30.7686V52.4404L17.3421 6.26099L95.8203 88.0697Z" fill="#96E3FC"/>
<path d="M74.2352 88.0697H-30.7686V39.7308L17.3483 6.26099L74.2352 88.0697Z" fill="#5BE3F8"/>
<path d="M56.8847 88.0697H-30.8271V29.5432L17.303 6.26099L56.8847 88.0697Z" fill="#01CDF2"/>
<path d="M4.7453 21.5941V21.6665C4.7453 21.7825 4.72958 21.8866 4.69813 21.9788C4.66669 22.071 4.62232 22.1497 4.56502 22.2146C4.50772 22.2789 4.43924 22.3282 4.35958 22.3624C4.28062 22.3967 4.19293 22.4138 4.0965 22.4138C4.00077 22.4138 3.91308 22.3967 3.83342 22.3624C3.75446 22.3282 3.68598 22.2789 3.62798 22.2146C3.56999 22.1497 3.52492 22.071 3.49277 21.9788C3.46133 21.8866 3.44561 21.7825 3.44561 21.6665V21.5941C3.44561 21.4774 3.46133 21.3733 3.49277 21.2818C3.52422 21.1896 3.56859 21.111 3.62589 21.046C3.68388 20.981 3.75236 20.9314 3.83132 20.8971C3.91098 20.8629 3.99868 20.8458 4.09441 20.8458C4.19083 20.8458 4.27853 20.8629 4.35749 20.8971C4.43715 20.9314 4.50562 20.981 4.56292 21.046C4.62092 21.111 4.66564 21.1896 4.69708 21.2818C4.72923 21.3733 4.7453 21.4774 4.7453 21.5941ZM4.42771 21.6665V21.592C4.42771 21.511 4.42038 21.4397 4.4057 21.3782C4.39103 21.3167 4.36937 21.265 4.34072 21.2231C4.31207 21.1812 4.27713 21.1497 4.2359 21.1288C4.19468 21.1071 4.14751 21.0963 4.09441 21.0963C4.0413 21.0963 3.99413 21.1071 3.95291 21.1288C3.91238 21.1497 3.87779 21.1812 3.84914 21.2231C3.82119 21.265 3.79988 21.3167 3.7852 21.3782C3.77053 21.4397 3.76319 21.511 3.76319 21.592V21.6665C3.76319 21.7468 3.77053 21.8181 3.7852 21.8803C3.79988 21.9418 3.82154 21.9938 3.85019 22.0365C3.87884 22.0784 3.91378 22.1102 3.955 22.1318C3.99623 22.1535 4.0434 22.1643 4.0965 22.1643C4.14961 22.1643 4.19677 22.1535 4.238 22.1318C4.27923 22.1102 4.31381 22.0784 4.34177 22.0365C4.36972 21.9938 4.39103 21.9418 4.4057 21.8803C4.42038 21.8181 4.42771 21.7468 4.42771 21.6665ZM5.27146 20.7829V22.3928H4.96855V20.7829H5.27146ZM5.83955 21.2587V22.3928H5.53664V21.2587H5.83955ZM5.51777 20.9632C5.51777 20.9191 5.53315 20.8828 5.56389 20.8542C5.59464 20.8255 5.63586 20.8112 5.68757 20.8112C5.73858 20.8112 5.77946 20.8255 5.8102 20.8542C5.84165 20.8828 5.85737 20.9191 5.85737 20.9632C5.85737 21.0072 5.84165 21.0435 5.8102 21.0722C5.77946 21.1008 5.73858 21.1151 5.68757 21.1151C5.63586 21.1151 5.59464 21.1008 5.56389 21.0722C5.53315 21.0435 5.51777 21.0072 5.51777 20.9632ZM6.47472 22.1727L6.72628 21.2587H7.04177L6.6592 22.3928H6.46843L6.47472 22.1727ZM6.30178 21.2587L6.55438 22.1738L6.55962 22.3928H6.36781L5.98524 21.2587H6.30178ZM7.49561 21.2587V22.3928H7.1927V21.2587H7.49561ZM7.17383 20.9632C7.17383 20.9191 7.1892 20.8828 7.21995 20.8542C7.25069 20.8255 7.29192 20.8112 7.34363 20.8112C7.39464 20.8112 7.43552 20.8255 7.46626 20.8542C7.4977 20.8828 7.51343 20.9191 7.51343 20.9632C7.51343 21.0072 7.4977 21.0435 7.46626 21.0722C7.43552 21.1008 7.39464 21.1151 7.34363 21.1151C7.29192 21.1151 7.25069 21.1008 7.21995 21.0722C7.1892 21.0435 7.17383 21.0072 7.17383 20.9632ZM8.35718 22.1371V21.6319C8.35718 21.5955 8.35124 21.5644 8.33936 21.5386C8.32748 21.512 8.30896 21.4914 8.28381 21.4768C8.25935 21.4621 8.22756 21.4547 8.18843 21.4547C8.15489 21.4547 8.12589 21.4607 8.10143 21.4726C8.07697 21.4837 8.05811 21.5002 8.04483 21.5218C8.03156 21.5428 8.02492 21.5676 8.02492 21.5962H7.72305C7.72305 21.548 7.73423 21.5023 7.75659 21.4589C7.77895 21.4156 7.81145 21.3775 7.85407 21.3447C7.8967 21.3111 7.94736 21.2849 8.00605 21.2661C8.06545 21.2472 8.13183 21.2378 8.2052 21.2378C8.29324 21.2378 8.3715 21.2524 8.43998 21.2818C8.50846 21.3111 8.56226 21.3552 8.60139 21.4139C8.64122 21.4726 8.66114 21.5459 8.66114 21.634V22.1193C8.66114 22.1814 8.66498 22.2325 8.67267 22.2723C8.68035 22.3114 8.69153 22.3457 8.70621 22.375V22.3928H8.4012C8.38652 22.3621 8.37534 22.3236 8.36766 22.2775C8.36067 22.2307 8.35718 22.1839 8.35718 22.1371ZM8.39701 21.7021L8.3991 21.8729H8.23035C8.19052 21.8729 8.15593 21.8775 8.12659 21.8866C8.09724 21.8957 8.07313 21.9086 8.05427 21.9254C8.0354 21.9414 8.02142 21.9603 8.01234 21.982C8.00395 22.0036 7.99976 22.0274 7.99976 22.0532C7.99976 22.0791 8.0057 22.1025 8.01758 22.1235C8.02946 22.1437 8.04658 22.1598 8.06894 22.1717C8.0913 22.1828 8.1175 22.1884 8.14755 22.1884C8.19297 22.1884 8.23245 22.1794 8.26599 22.1612C8.29953 22.143 8.32538 22.1207 8.34355 22.0941C8.36242 22.0676 8.3722 22.0424 8.3729 22.0186L8.45256 22.1465C8.44138 22.1752 8.426 22.2049 8.40644 22.2356C8.38757 22.2663 8.36347 22.2953 8.33412 22.3226C8.30477 22.3491 8.26948 22.3712 8.22826 22.3886C8.18703 22.4054 8.13812 22.4138 8.08152 22.4138C8.00954 22.4138 7.94421 22.3995 7.88552 22.3708C7.82752 22.3415 7.7814 22.3013 7.74716 22.2503C7.71362 22.1986 7.69685 22.1399 7.69685 22.0742C7.69685 22.0148 7.70803 21.962 7.73039 21.9159C7.75275 21.8698 7.78559 21.831 7.82892 21.7996C7.87294 21.7674 7.92779 21.7433 7.99347 21.7273C8.05916 21.7105 8.13532 21.7021 8.22197 21.7021H8.39701ZM10.6893 20.8667V22.3928H10.3748L9.76168 21.3698V22.3928H9.44724V20.8667H9.76168L10.3759 21.8908V20.8667H10.6893ZM11.5561 22.1371V21.6319C11.5561 21.5955 11.5502 21.5644 11.5383 21.5386C11.5264 21.512 11.5079 21.4914 11.4827 21.4768C11.4583 21.4621 11.4265 21.4547 11.3873 21.4547C11.3538 21.4547 11.3248 21.4607 11.3003 21.4726C11.2759 21.4837 11.257 21.5002 11.2437 21.5218C11.2305 21.5428 11.2238 21.5676 11.2238 21.5962H10.922C10.922 21.548 10.9331 21.5023 10.9555 21.4589C10.9779 21.4156 11.0104 21.3775 11.053 21.3447C11.0956 21.3111 11.1463 21.2849 11.205 21.2661C11.2644 21.2472 11.3307 21.2378 11.4041 21.2378C11.4922 21.2378 11.5704 21.2524 11.6389 21.2818C11.7074 21.3111 11.7612 21.3552 11.8003 21.4139C11.8401 21.4726 11.86 21.5459 11.86 21.634V22.1193C11.86 22.1814 11.8639 22.2325 11.8716 22.2723C11.8793 22.3114 11.8904 22.3457 11.9051 22.375V22.3928H11.6001C11.5854 22.3621 11.5743 22.3236 11.5666 22.2775C11.5596 22.2307 11.5561 22.1839 11.5561 22.1371ZM11.5959 21.7021L11.598 21.8729H11.4293C11.3894 21.8729 11.3548 21.8775 11.3255 21.8866C11.2962 21.8957 11.272 21.9086 11.2532 21.9254C11.2343 21.9414 11.2203 21.9603 11.2113 21.982C11.2029 22.0036 11.1987 22.0274 11.1987 22.0532C11.1987 22.0791 11.2046 22.1025 11.2165 22.1235C11.2284 22.1437 11.2455 22.1598 11.2679 22.1717C11.2902 22.1828 11.3164 22.1884 11.3465 22.1884C11.3919 22.1884 11.4314 22.1794 11.4649 22.1612C11.4984 22.143 11.5243 22.1207 11.5425 22.0941C11.5613 22.0676 11.5711 22.0424 11.5718 22.0186L11.6515 22.1465C11.6403 22.1752 11.6249 22.2049 11.6054 22.2356C11.5865 22.2663 11.5624 22.2953 11.533 22.3226C11.5037 22.3491 11.4684 22.3712 11.4272 22.3886C11.3859 22.4054 11.337 22.4138 11.2804 22.4138C11.2085 22.4138 11.1431 22.3995 11.0844 22.3708C11.0264 22.3415 10.9803 22.3013 10.9461 22.2503C10.9125 22.1986 10.8958 22.1399 10.8958 22.0742C10.8958 22.0148 10.9069 21.962 10.9293 21.9159C10.9517 21.8698 10.9845 21.831 11.0278 21.7996C11.0719 21.7674 11.1267 21.7433 11.1924 21.7273C11.2581 21.7105 11.3342 21.7021 11.4209 21.7021H11.5959ZM12.3883 21.5009V22.3928H12.0864V21.2587H12.3694L12.3883 21.5009ZM12.3443 21.786H12.2625C12.2625 21.7021 12.2734 21.6266 12.295 21.5596C12.3167 21.4918 12.3471 21.4341 12.3862 21.3866C12.4253 21.3384 12.4718 21.3017 12.5256 21.2766C12.5801 21.2507 12.6409 21.2378 12.708 21.2378C12.7611 21.2378 12.8097 21.2455 12.8537 21.2608C12.8977 21.2762 12.9354 21.3007 12.9669 21.3342C12.999 21.3677 13.0235 21.4121 13.0403 21.4673C13.0577 21.5225 13.0665 21.5899 13.0665 21.6696V22.3928H12.7625V21.6686C12.7625 21.6182 12.7555 21.5791 12.7415 21.5512C12.7276 21.5232 12.7069 21.5037 12.6797 21.4925C12.6531 21.4806 12.6203 21.4747 12.5812 21.4747C12.5406 21.4747 12.5054 21.4827 12.4753 21.4988C12.446 21.5148 12.4215 21.5372 12.4019 21.5658C12.3831 21.5938 12.3687 21.6266 12.359 21.6644C12.3492 21.7021 12.3443 21.7426 12.3443 21.786ZM14.014 21.2587H14.2875V22.3551C14.2875 22.4585 14.2645 22.5462 14.2184 22.6182C14.1729 22.6908 14.1094 22.7457 14.0276 22.7827C13.9458 22.8205 13.8508 22.8393 13.7425 22.8393C13.695 22.8393 13.6447 22.833 13.5916 22.8205C13.5392 22.8079 13.4889 22.7883 13.4406 22.7618C13.3931 22.7352 13.3533 22.7017 13.3212 22.6611L13.4543 22.483C13.4892 22.5235 13.5297 22.5549 13.5758 22.5773C13.622 22.6004 13.673 22.6119 13.7289 22.6119C13.7834 22.6119 13.8295 22.6018 13.8672 22.5815C13.905 22.5619 13.934 22.5329 13.9542 22.4945C13.9745 22.4568 13.9846 22.411 13.9846 22.3572V21.5208L14.014 21.2587ZM13.2509 21.8394V21.8174C13.2509 21.7307 13.2614 21.6521 13.2824 21.5816C13.304 21.5103 13.3344 21.4491 13.3736 21.3981C13.4134 21.3471 13.4616 21.3077 13.5182 21.2797C13.5748 21.2518 13.6387 21.2378 13.71 21.2378C13.7855 21.2378 13.8487 21.2518 13.8997 21.2797C13.9507 21.3077 13.9927 21.3475 14.0255 21.3992C14.0583 21.4502 14.0838 21.5106 14.102 21.5805C14.1209 21.6497 14.1356 21.7255 14.146 21.808V21.8562C14.1356 21.9351 14.1198 22.0085 14.0989 22.0763C14.0779 22.1441 14.0503 22.2035 14.0161 22.2545C13.9818 22.3048 13.9392 22.3439 13.8882 22.3719C13.8379 22.3998 13.7778 22.4138 13.7079 22.4138C13.638 22.4138 13.5748 22.3995 13.5182 22.3708C13.4623 22.3422 13.4144 22.302 13.3746 22.2503C13.3348 22.1986 13.304 22.1378 13.2824 22.0679C13.2614 21.998 13.2509 21.9219 13.2509 21.8394ZM13.5528 21.8174V21.8394C13.5528 21.8862 13.5573 21.9299 13.5664 21.9704C13.5755 22.011 13.5895 22.0469 13.6083 22.0784C13.6279 22.1091 13.652 22.1332 13.6807 22.1507C13.71 22.1675 13.7446 22.1759 13.7844 22.1759C13.8396 22.1759 13.8847 22.1643 13.9196 22.1413C13.9546 22.1175 13.9808 22.085 13.9982 22.0438C14.0157 22.0026 14.0258 21.9551 14.0286 21.9012V21.7639C14.0272 21.7199 14.0213 21.6804 14.0108 21.6455C14.0003 21.6099 13.9857 21.5795 13.9668 21.5543C13.9479 21.5292 13.9235 21.5096 13.8934 21.4956C13.8634 21.4816 13.8278 21.4747 13.7865 21.4747C13.7467 21.4747 13.7121 21.4837 13.6828 21.5019C13.6541 21.5194 13.63 21.5435 13.6104 21.5742C13.5916 21.605 13.5772 21.6413 13.5675 21.6832C13.5577 21.7245 13.5528 21.7692 13.5528 21.8174ZM15.1931 22.1214V21.2587H15.495V22.3928H15.2109L15.1931 22.1214ZM15.2267 21.8887L15.3158 21.8866C15.3158 21.962 15.307 22.0323 15.2896 22.0972C15.2721 22.1615 15.2459 22.2174 15.2109 22.2649C15.176 22.3118 15.132 22.3485 15.0789 22.375C15.0258 22.4009 14.9632 22.4138 14.8913 22.4138C14.8361 22.4138 14.785 22.4061 14.7382 22.3907C14.6921 22.3747 14.6523 22.3498 14.6187 22.3163C14.5859 22.2821 14.56 22.2384 14.5412 22.1853C14.523 22.1315 14.5139 22.0669 14.5139 21.9914V21.2587H14.8158V21.9935C14.8158 22.027 14.8196 22.0553 14.8273 22.0784C14.8357 22.1014 14.8472 22.1203 14.8619 22.135C14.8766 22.1497 14.8937 22.1601 14.9133 22.1664C14.9335 22.1727 14.9559 22.1759 14.9804 22.1759C15.0425 22.1759 15.0915 22.1633 15.1271 22.1381C15.1634 22.113 15.1889 22.0787 15.2036 22.0354C15.219 21.9914 15.2267 21.9425 15.2267 21.8887ZM16.0442 20.7829V22.3928H15.7413V20.7829H16.0442ZM16.9058 22.1371V21.6319C16.9058 21.5955 16.8998 21.5644 16.888 21.5386C16.8761 21.512 16.8576 21.4914 16.8324 21.4768C16.808 21.4621 16.7762 21.4547 16.737 21.4547C16.7035 21.4547 16.6745 21.4607 16.65 21.4726C16.6256 21.4837 16.6067 21.5002 16.5934 21.5218C16.5802 21.5428 16.5735 21.5676 16.5735 21.5962H16.2717C16.2717 21.548 16.2828 21.5023 16.3052 21.4589C16.3276 21.4156 16.36 21.3775 16.4027 21.3447C16.4453 21.3111 16.496 21.2849 16.5547 21.2661C16.614 21.2472 16.6804 21.2378 16.7538 21.2378C16.8418 21.2378 16.9201 21.2524 16.9886 21.2818C17.0571 21.3111 17.1109 21.3552 17.15 21.4139C17.1898 21.4726 17.2097 21.5459 17.2097 21.634V22.1193C17.2097 22.1814 17.2136 22.2325 17.2213 22.2723C17.229 22.3114 17.2401 22.3457 17.2548 22.375V22.3928H16.9498C16.9351 22.3621 16.9239 22.3236 16.9163 22.2775C16.9093 22.2307 16.9058 22.1839 16.9058 22.1371ZM16.9456 21.7021L16.9477 21.8729H16.779C16.7391 21.8729 16.7045 21.8775 16.6752 21.8866C16.6458 21.8957 16.6217 21.9086 16.6029 21.9254C16.584 21.9414 16.57 21.9603 16.5609 21.982C16.5526 22.0036 16.5484 22.0274 16.5484 22.0532C16.5484 22.0791 16.5543 22.1025 16.5662 22.1235C16.5781 22.1437 16.5952 22.1598 16.6175 22.1717C16.6399 22.1828 16.6661 22.1884 16.6962 22.1884C16.7416 22.1884 16.7811 22.1794 16.8146 22.1612C16.8481 22.143 16.874 22.1207 16.8922 22.0941C16.911 22.0676 16.9208 22.0424 16.9215 22.0186L17.0012 22.1465C16.99 22.1752 16.9746 22.2049 16.955 22.2356C16.9362 22.2663 16.9121 22.2953 16.8827 22.3226C16.8534 22.3491 16.8181 22.3712 16.7769 22.3886C16.7356 22.4054 16.6867 22.4138 16.6301 22.4138C16.5581 22.4138 16.4928 22.3995 16.4341 22.3708C16.3761 22.3415 16.33 22.3013 16.2958 22.2503C16.2622 22.1986 16.2455 22.1399 16.2455 22.0742C16.2455 22.0148 16.2566 21.962 16.279 21.9159C16.3014 21.8698 16.3342 21.831 16.3775 21.7996C16.4215 21.7674 16.4764 21.7433 16.5421 21.7273C16.6078 21.7105 16.6839 21.7021 16.7706 21.7021H16.9456Z" fill="white"/>
<path d="M25.9938 26.3967H26.0137C26.0975 26.3967 26.1695 26.3866 26.2296 26.3663C26.2904 26.3453 26.3404 26.3153 26.3795 26.2762C26.4186 26.237 26.4476 26.1892 26.4665 26.1326C26.4853 26.0753 26.4948 26.0103 26.4948 25.9376V25.6483C26.4948 25.5931 26.4892 25.5446 26.478 25.5026C26.4675 25.4607 26.4522 25.4261 26.4319 25.3989C26.4123 25.3709 26.3893 25.35 26.3627 25.336C26.3369 25.322 26.3082 25.315 26.2768 25.315C26.2432 25.315 26.2135 25.3234 26.1877 25.3402C26.1618 25.3563 26.1398 25.3783 26.1217 25.4062C26.1042 25.4342 26.0906 25.4663 26.0808 25.5026C26.0717 25.5383 26.0672 25.5757 26.0672 25.6148C26.0672 25.6539 26.0717 25.6913 26.0808 25.7269C26.0899 25.7619 26.1035 25.793 26.1217 25.8202C26.1398 25.8468 26.1625 25.8681 26.1898 25.8842C26.217 25.8995 26.2492 25.9072 26.2862 25.9072C26.3218 25.9072 26.3536 25.9006 26.3816 25.8873C26.4102 25.8733 26.4343 25.8552 26.4539 25.8328C26.4742 25.8104 26.4895 25.7856 26.5 25.7584C26.5112 25.7311 26.5168 25.7035 26.5168 25.6756L26.6164 25.7301C26.6164 25.779 26.6059 25.8272 26.5849 25.8747C26.564 25.9222 26.5346 25.9656 26.4969 26.0047C26.4598 26.0431 26.4169 26.0739 26.368 26.0969C26.319 26.12 26.2666 26.1315 26.2107 26.1315C26.1395 26.1315 26.0762 26.1186 26.021 26.0927C25.9658 26.0662 25.919 26.0298 25.8806 25.9837C25.8429 25.9369 25.8142 25.8824 25.7946 25.8202C25.7751 25.758 25.7653 25.6906 25.7653 25.6179C25.7653 25.5439 25.7772 25.4744 25.8009 25.4094C25.8254 25.3444 25.86 25.2871 25.9047 25.2375C25.9501 25.1879 26.0043 25.1491 26.0672 25.1211C26.1307 25.0925 26.2013 25.0782 26.2789 25.0782C26.3564 25.0782 26.427 25.0932 26.4906 25.1232C26.5542 25.1533 26.6087 25.1959 26.6541 25.2511C26.6995 25.3056 26.7344 25.3709 26.7589 25.4471C26.7841 25.5233 26.7966 25.6078 26.7966 25.7007V25.8056C26.7966 25.9048 26.7858 25.997 26.7641 26.0823C26.7432 26.1675 26.7114 26.2447 26.6688 26.3139C26.6268 26.3824 26.5744 26.4411 26.5115 26.49C26.4494 26.5389 26.377 26.5763 26.2946 26.6021C26.2121 26.628 26.1199 26.6409 26.0179 26.6409H25.9938V26.3967ZM28.0397 25.729V25.9932C28.0397 26.1078 28.0275 26.2066 28.003 26.2898C27.9786 26.3722 27.9433 26.44 27.8971 26.4931C27.8517 26.5455 27.7976 26.5843 27.7347 26.6095C27.6718 26.6346 27.6019 26.6472 27.5251 26.6472C27.4636 26.6472 27.4063 26.6395 27.3532 26.6241C27.3001 26.6081 27.2522 26.5832 27.2096 26.5497C27.1677 26.5162 27.1313 26.4739 27.1006 26.4229C27.0705 26.3712 27.0475 26.3097 27.0314 26.2384C27.0153 26.1671 27.0073 26.0854 27.0073 25.9932V25.729C27.0073 25.6144 27.0195 25.5163 27.044 25.4345C27.0691 25.3521 27.1044 25.2846 27.1498 25.2322C27.196 25.1798 27.2505 25.1414 27.3134 25.1169C27.3762 25.0918 27.4461 25.0792 27.523 25.0792C27.5845 25.0792 27.6414 25.0872 27.6938 25.1033C27.7469 25.1187 27.7948 25.1428 27.8374 25.1756C27.88 25.2085 27.9164 25.2508 27.9464 25.3025C27.9765 25.3535 27.9995 25.4146 28.0156 25.4859C28.0317 25.5565 28.0397 25.6375 28.0397 25.729ZM27.7368 26.033V25.6882C27.7368 25.633 27.7336 25.5848 27.7274 25.5435C27.7218 25.5023 27.713 25.4674 27.7012 25.4387C27.6893 25.4094 27.6746 25.3856 27.6571 25.3674C27.6397 25.3493 27.6197 25.336 27.5974 25.3276C27.575 25.3192 27.5502 25.315 27.523 25.315C27.4887 25.315 27.4583 25.3217 27.4318 25.335C27.4059 25.3482 27.3839 25.3695 27.3658 25.3989C27.3476 25.4275 27.3336 25.466 27.3238 25.5142C27.3147 25.5617 27.3102 25.6197 27.3102 25.6882V26.033C27.3102 26.0882 27.313 26.1368 27.3186 26.1787C27.3249 26.2206 27.334 26.2566 27.3458 26.2866C27.3584 26.316 27.3731 26.3401 27.3899 26.359C27.4073 26.3771 27.4272 26.3904 27.4496 26.3988C27.4727 26.4072 27.4978 26.4114 27.5251 26.4114C27.5586 26.4114 27.5883 26.4047 27.6142 26.3914C27.6407 26.3775 27.6631 26.3558 27.6812 26.3265C27.7001 26.2964 27.7141 26.2573 27.7232 26.2091C27.7322 26.1609 27.7368 26.1022 27.7368 26.033ZM28.9809 25.097V26.6262H28.679V25.445L28.3164 25.5603V25.3224L28.9484 25.097H28.9809ZM30.5059 26.208C30.5059 26.3038 30.4835 26.3845 30.4388 26.4501C30.3941 26.5151 30.3326 26.5644 30.2543 26.5979C30.1768 26.6308 30.0887 26.6472 29.9902 26.6472C29.8917 26.6472 29.8033 26.6308 29.725 26.5979C29.6468 26.5644 29.585 26.5151 29.5395 26.4501C29.4941 26.3845 29.4714 26.3038 29.4714 26.208C29.4714 26.1437 29.4843 26.0857 29.5102 26.034C29.536 25.9816 29.572 25.9369 29.6181 25.8999C29.665 25.8622 29.7198 25.8335 29.7827 25.8139C29.8456 25.7937 29.9141 25.7835 29.9881 25.7835C30.0873 25.7835 30.1761 25.801 30.2543 25.8359C30.3326 25.8709 30.3941 25.9201 30.4388 25.9837C30.4835 26.0473 30.5059 26.1221 30.5059 26.208ZM30.2019 26.1881C30.2019 26.1413 30.1929 26.1011 30.1747 26.0676C30.1572 26.0333 30.1324 26.0071 30.1003 25.989C30.0681 25.9708 30.0307 25.9617 29.9881 25.9617C29.9455 25.9617 29.9081 25.9708 29.876 25.989C29.8438 26.0071 29.8187 26.0333 29.8005 26.0676C29.783 26.1011 29.7743 26.1413 29.7743 26.1881C29.7743 26.2342 29.783 26.2741 29.8005 26.3076C29.8187 26.3411 29.8438 26.367 29.876 26.3852C29.9088 26.4026 29.9469 26.4114 29.9902 26.4114C30.0335 26.4114 30.0709 26.4026 30.1024 26.3852C30.1345 26.367 30.159 26.3411 30.1757 26.3076C30.1932 26.2741 30.2019 26.2342 30.2019 26.1881ZM30.4734 25.5047C30.4734 25.5823 30.4528 25.6511 30.4116 25.7112C30.3703 25.7706 30.313 25.8171 30.2397 25.8506C30.167 25.8842 30.0839 25.9009 29.9902 25.9009C29.8959 25.9009 29.812 25.8842 29.7387 25.8506C29.6653 25.8171 29.608 25.7706 29.5668 25.7112C29.5256 25.6511 29.5049 25.5823 29.5049 25.5047C29.5049 25.4125 29.5256 25.335 29.5668 25.2721C29.6087 25.2085 29.666 25.1603 29.7387 25.1274C29.812 25.0946 29.8952 25.0782 29.9881 25.0782C30.0825 25.0782 30.166 25.0946 30.2386 25.1274C30.312 25.1603 30.3693 25.2085 30.4105 25.2721C30.4524 25.335 30.4734 25.4125 30.4734 25.5047ZM30.1715 25.5184C30.1715 25.4771 30.1642 25.4415 30.1495 25.4115C30.1349 25.3807 30.1139 25.357 30.0866 25.3402C30.0601 25.3234 30.0273 25.315 29.9881 25.315C29.9504 25.315 29.9179 25.3231 29.8906 25.3391C29.8641 25.3552 29.8435 25.3786 29.8288 25.4094C29.8148 25.4394 29.8078 25.4757 29.8078 25.5184C29.8078 25.5596 29.8148 25.5959 29.8288 25.6274C29.8435 25.6581 29.8644 25.6822 29.8917 25.6997C29.9189 25.7172 29.9518 25.7259 29.9902 25.7259C30.0286 25.7259 30.0611 25.7172 30.0877 25.6997C30.1149 25.6822 30.1356 25.6581 30.1495 25.6274C30.1642 25.5959 30.1715 25.5596 30.1715 25.5184Z" fill="white"/>
<path d="M4.51372 26.0561V26.2929H3.41426L3.39959 26.1095L4.03579 25.1002H4.2758L4.01587 25.5351L3.69934 26.0561H4.51372ZM4.34079 25.1002V26.6262H4.03893V25.1002H4.34079ZM5.71381 25.1002V25.2626L5.12372 26.6262H4.8051L5.39518 25.336H4.6353V25.1002H5.71381ZM6.19384 25.9313L5.95278 25.8737L6.03977 25.1002H6.89712V25.3444H6.28817L6.25044 25.6829C6.2707 25.671 6.30145 25.6585 6.34267 25.6452C6.3839 25.6312 6.43001 25.6242 6.48102 25.6242C6.55509 25.6242 6.62077 25.6358 6.67807 25.6588C6.73536 25.6819 6.78393 25.7154 6.82375 25.7594C6.86428 25.8035 6.89502 25.8573 6.91599 25.9208C6.93695 25.9844 6.94743 26.0564 6.94743 26.1368C6.94743 26.2045 6.93695 26.2692 6.91599 26.3307C6.89502 26.3914 6.86323 26.4459 6.82061 26.4942C6.77799 26.5417 6.72453 26.5791 6.66025 26.6063C6.59596 26.6336 6.5198 26.6472 6.43176 26.6472C6.36608 26.6472 6.30249 26.6374 6.24101 26.6178C6.18022 26.5983 6.12536 26.5693 6.07645 26.5308C6.02824 26.4924 5.98946 26.4459 5.96011 26.3914C5.93146 26.3362 5.91644 26.2734 5.91504 26.2028H6.2148C6.219 26.2461 6.23018 26.2835 6.24834 26.3149C6.26721 26.3457 6.29201 26.3694 6.32276 26.3862C6.3535 26.403 6.38949 26.4114 6.43071 26.4114C6.46914 26.4114 6.50198 26.404 6.52924 26.3893C6.55649 26.3747 6.5785 26.3544 6.59527 26.3286C6.61204 26.302 6.62426 26.2713 6.63195 26.2363C6.64033 26.2007 6.64453 26.1623 6.64453 26.121C6.64453 26.0798 6.63964 26.0424 6.62985 26.0089C6.62007 25.9753 6.60505 25.9463 6.58478 25.9219C6.56452 25.8974 6.53867 25.8786 6.50723 25.8653C6.47648 25.852 6.4405 25.8454 6.39927 25.8454C6.34337 25.8454 6.30005 25.8541 6.2693 25.8716C6.23926 25.8891 6.2141 25.909 6.19384 25.9313ZM7.92112 25.0845H7.96514V25.3255H7.94733C7.86767 25.3255 7.79675 25.3374 7.73456 25.3612C7.67237 25.3849 7.61962 25.4188 7.57629 25.4628C7.53367 25.5061 7.50083 25.5585 7.47777 25.62C7.45541 25.6815 7.44423 25.7504 7.44423 25.8265V26.0802C7.44423 26.1347 7.44947 26.1829 7.45995 26.2248C7.47113 26.266 7.48686 26.3006 7.50712 26.3286C7.52808 26.3558 7.55254 26.3764 7.58049 26.3904C7.60844 26.4037 7.63988 26.4103 7.67482 26.4103C7.70766 26.4103 7.73735 26.4033 7.76391 26.3893C7.79116 26.3754 7.81422 26.3558 7.83308 26.3307C7.85265 26.3048 7.86732 26.2748 7.8771 26.2405C7.88758 26.2056 7.89282 26.1675 7.89282 26.1263C7.89282 26.085 7.88758 26.047 7.8771 26.012C7.86732 25.9771 7.85265 25.947 7.83308 25.9219C7.81352 25.896 7.78976 25.8761 7.76181 25.8622C7.73386 25.8482 7.70242 25.8412 7.66748 25.8412C7.61997 25.8412 7.57804 25.8524 7.54171 25.8747C7.50607 25.8964 7.47812 25.9243 7.45786 25.9586C7.4376 25.9928 7.42676 26.0288 7.42537 26.0665L7.33418 26.0078C7.33628 25.954 7.34746 25.903 7.36772 25.8548C7.38868 25.8066 7.41733 25.764 7.45367 25.7269C7.4907 25.6892 7.53507 25.6599 7.58678 25.6389C7.63848 25.6172 7.69683 25.6064 7.76181 25.6064C7.83308 25.6064 7.89562 25.62 7.94942 25.6473C8.00392 25.6745 8.04934 25.7119 8.08568 25.7594C8.12201 25.8069 8.14926 25.8618 8.16743 25.924C8.18559 25.9862 8.19468 26.0526 8.19468 26.1231C8.19468 26.1972 8.18245 26.266 8.15799 26.3296C8.13424 26.3932 8.09965 26.4487 8.05423 26.4963C8.00951 26.5438 7.95571 26.5808 7.89282 26.6074C7.82994 26.6339 7.75936 26.6472 7.68111 26.6472C7.60005 26.6472 7.52634 26.6325 7.45995 26.6032C7.39427 26.5731 7.33768 26.5312 7.29016 26.4774C7.24265 26.4236 7.20596 26.3597 7.18011 26.2856C7.15496 26.2115 7.14238 26.1305 7.14238 26.0424V25.925C7.14238 25.8021 7.1602 25.6896 7.19583 25.5875C7.23217 25.4848 7.28422 25.3961 7.352 25.3213C7.41978 25.2459 7.50153 25.1875 7.59726 25.1463C7.69298 25.1051 7.80094 25.0845 7.92112 25.0845Z" fill="white"/>
<path d="M14.9652 26.0728C14.9639 25.9887 14.9877 25.9061 15.0335 25.8355C15.0793 25.7649 15.145 25.7096 15.2224 25.6765C15.2997 25.6434 15.3852 25.6341 15.4678 25.6497C15.5505 25.6653 15.6267 25.7051 15.6866 25.7642C15.7465 25.8232 15.7876 25.8987 15.8045 25.9811C15.8213 26.0635 15.8133 26.1491 15.7814 26.227C15.7495 26.3048 15.6952 26.3714 15.6254 26.4183C15.5555 26.4652 15.4733 26.4902 15.3891 26.4902C15.2776 26.4911 15.1703 26.4476 15.0908 26.3693C15.0113 26.291 14.9661 26.1844 14.9652 26.0728ZM13.3761 26.0728C13.3747 25.9887 13.3985 25.9061 13.4443 25.8354C13.49 25.7648 13.5558 25.7094 13.6332 25.6763C13.7105 25.6432 13.796 25.6339 13.8787 25.6495C13.9614 25.6651 14.0376 25.7049 14.0976 25.7639C14.1575 25.823 14.1986 25.8985 14.2155 25.981C14.2324 26.0634 14.2244 26.149 14.1925 26.2269C14.1606 26.3047 14.1063 26.3714 14.0364 26.4183C13.9665 26.4652 13.8843 26.4902 13.8001 26.4902C13.6885 26.4911 13.5812 26.4476 13.5017 26.3693C13.4221 26.2911 13.377 26.1844 13.3761 26.0728ZM11.7865 26.0728C11.7852 25.9887 11.809 25.9061 11.8548 25.8355C11.9005 25.7649 11.9663 25.7096 12.0436 25.6765C12.121 25.6434 12.2064 25.6341 12.2891 25.6497C12.3718 25.6653 12.4479 25.7051 12.5079 25.7642C12.5678 25.8232 12.6088 25.8987 12.6257 25.9811C12.6426 26.0635 12.6346 26.1491 12.6027 26.227C12.5708 26.3048 12.5165 26.3714 12.4466 26.4183C12.3768 26.4652 12.2945 26.4902 12.2104 26.4902C12.0988 26.4911 11.9915 26.4476 11.912 26.3693C11.8325 26.291 11.7874 26.1844 11.7865 26.0728ZM10.1973 26.0728C10.196 25.9887 10.2197 25.9061 10.2655 25.8354C10.3113 25.7648 10.3771 25.7094 10.4545 25.6763C10.5318 25.6432 10.6173 25.6338 10.7 25.6495C10.7827 25.6651 10.8589 25.7049 10.9189 25.764C10.9788 25.823 11.0199 25.8986 11.0368 25.981C11.0537 26.0635 11.0456 26.1491 11.0137 26.227C10.9818 26.3049 10.9274 26.3714 10.8575 26.4183C10.7876 26.4652 10.7054 26.4903 10.6212 26.4902C10.5097 26.4911 10.4023 26.4476 10.3228 26.3693C10.2434 26.291 10.1982 26.1844 10.1973 26.0728Z" fill="white"/>
<path d="M22.3855 26.073C22.3842 25.9889 22.408 25.9063 22.4538 25.8357C22.4996 25.7651 22.5653 25.7097 22.6427 25.6767C22.72 25.6436 22.8054 25.6343 22.8881 25.6499C22.9708 25.6655 23.0469 25.7053 23.1069 25.7643C23.1668 25.8234 23.2079 25.8989 23.2248 25.9813C23.2416 26.0637 23.2336 26.1493 23.2017 26.2272C23.1698 26.305 23.1155 26.3716 23.0456 26.4185C22.9758 26.4654 22.8935 26.4904 22.8094 26.4904C22.6979 26.4913 22.5905 26.4477 22.511 26.3695C22.4316 26.2912 22.3864 26.1846 22.3855 26.073ZM20.794 26.073C20.7925 25.9886 20.8161 25.9056 20.8618 25.8346C20.9076 25.7637 20.9735 25.708 21.051 25.6746C21.1286 25.6412 21.2143 25.6316 21.2973 25.6471C21.3803 25.6626 21.4568 25.7025 21.5171 25.7617C21.5774 25.8208 21.6187 25.8966 21.6357 25.9793C21.6528 26.062 21.6448 26.1479 21.6129 26.2261C21.5809 26.3042 21.5264 26.3711 21.4563 26.4182C21.3862 26.4652 21.3037 26.4904 21.2192 26.4904C21.1639 26.4909 21.109 26.4805 21.0577 26.4598C21.0064 26.4392 20.9596 26.4085 20.9201 26.3698C20.8806 26.331 20.8492 26.2849 20.8275 26.234C20.8059 26.1831 20.7945 26.1284 20.794 26.073H20.794ZM19.205 26.073C19.2037 25.9889 19.2275 25.9063 19.2732 25.8357C19.319 25.7651 19.3848 25.7097 19.4621 25.6767C19.5395 25.6436 19.6249 25.6343 19.7076 25.6499C19.7903 25.6655 19.8664 25.7053 19.9264 25.7643C19.9863 25.8234 20.0273 25.8989 20.0442 25.9813C20.0611 26.0637 20.0531 26.1493 20.0212 26.2272C19.9893 26.305 19.935 26.3716 19.8651 26.4185C19.7953 26.4654 19.713 26.4904 19.6289 26.4904C19.5173 26.4913 19.41 26.4477 19.3305 26.3695C19.251 26.2912 19.2058 26.1846 19.2049 26.073H19.205ZM17.6153 26.073C17.614 25.9889 17.6377 25.9062 17.6835 25.8356C17.7293 25.765 17.7951 25.7096 17.8724 25.6765C17.9498 25.6434 18.0353 25.634 18.118 25.6496C18.2007 25.6653 18.2769 25.7051 18.3368 25.7642C18.3968 25.8232 18.4379 25.8987 18.4547 25.9812C18.4716 26.0636 18.4636 26.1493 18.4317 26.2272C18.3998 26.305 18.3454 26.3716 18.2755 26.4185C18.2056 26.4654 18.1233 26.4904 18.0392 26.4904C17.9276 26.4913 17.8203 26.4477 17.7408 26.3695C17.6613 26.2912 17.6162 26.1846 17.6153 26.073Z" fill="white"/>
<path d="M4.11866 5.44299H3.5988L3.596 5.17188H4.0418C4.1182 5.17188 4.18202 5.16116 4.23326 5.13974C4.2845 5.11831 4.32316 5.0871 4.34925 5.0461C4.37627 5.00511 4.38978 4.95527 4.38978 4.89657C4.38978 4.83136 4.3772 4.77825 4.35204 4.73726C4.32782 4.69627 4.28962 4.66645 4.23745 4.64782C4.18528 4.62826 4.11913 4.61847 4.03901 4.61847H3.72318V6.34996H3.33887V4.31522H4.03901C4.15453 4.31522 4.25748 4.3264 4.34785 4.34876C4.43915 4.37019 4.51648 4.40373 4.57984 4.44938C4.64319 4.49503 4.69117 4.55233 4.72378 4.62127C4.75732 4.69021 4.77409 4.7722 4.77409 4.86723C4.77409 4.95107 4.75452 5.0284 4.71539 5.09921C4.67719 5.16908 4.61803 5.22591 4.53791 5.2697C4.45872 5.31349 4.3581 5.33864 4.23605 5.34517L4.11866 5.44299ZM4.10189 6.34996H3.4856L3.64631 6.0481H4.10189C4.17829 6.0481 4.24118 6.03552 4.29056 6.01037C4.34087 5.98521 4.37813 5.95074 4.40235 5.90696C4.42751 5.86224 4.44009 5.81099 4.44009 5.75323C4.44009 5.68988 4.42891 5.63491 4.40655 5.58833C4.38512 5.54175 4.35065 5.50588 4.30313 5.48072C4.25655 5.45557 4.19506 5.44299 4.11866 5.44299H3.71898L3.72178 5.17188H4.23046L4.31851 5.27669C4.43589 5.27762 4.53139 5.30091 4.60499 5.34656C4.67952 5.39221 4.73449 5.45091 4.76989 5.52265C4.8053 5.59438 4.823 5.67171 4.823 5.75463C4.823 5.88506 4.79458 5.99453 4.73775 6.08304C4.68185 6.17155 4.59987 6.23816 4.49179 6.28288C4.38465 6.3276 4.25469 6.34996 4.10189 6.34996Z" fill="white"/>
<path d="M6.02763 5.9908V4.83788H6.39936V6.34996H6.04999L6.02763 5.9908ZM6.07515 5.67777L6.18974 5.67497C6.18974 5.77652 6.17856 5.87016 6.1562 5.95587C6.13384 6.04158 6.0989 6.11611 6.05139 6.17947C6.00481 6.24189 5.94565 6.2908 5.87391 6.3262C5.80217 6.36067 5.71739 6.37791 5.61957 6.37791C5.54503 6.37791 5.47702 6.36766 5.41553 6.34716C5.35404 6.32574 5.30094 6.29266 5.25622 6.24794C5.21243 6.20229 5.17843 6.14406 5.1542 6.07326C5.12998 6.00152 5.11787 5.91534 5.11787 5.81472V4.83788H5.4868V5.81752C5.4868 5.86783 5.49239 5.90975 5.50357 5.94329C5.51569 5.97683 5.53199 6.00431 5.55249 6.02574C5.57391 6.04624 5.5986 6.06114 5.62655 6.07046C5.65543 6.07885 5.68618 6.08304 5.71879 6.08304C5.80823 6.08304 5.87857 6.06534 5.92981 6.02993C5.98198 5.9936 6.01925 5.94515 6.04161 5.8846C6.06397 5.82311 6.07515 5.75416 6.07515 5.67777Z" fill="white"/>
<path d="M7.2099 6.34996H6.83817V4.69813C6.83817 4.58447 6.86007 4.48897 6.90385 4.41164C6.94764 4.33339 7.01006 4.27423 7.09112 4.23416C7.17217 4.1941 7.26767 4.17407 7.3776 4.17407C7.41394 4.17407 7.44841 4.1764 7.48102 4.18106C7.51456 4.18572 7.54763 4.19224 7.58024 4.20062L7.57325 4.48152C7.55555 4.47686 7.53598 4.4736 7.51456 4.47174C7.49406 4.46987 7.47123 4.46894 7.44608 4.46894C7.39577 4.46894 7.35291 4.47779 7.31751 4.49549C7.28211 4.5132 7.25509 4.53928 7.23646 4.57375C7.21876 4.60729 7.2099 4.64875 7.2099 4.69813V6.34996ZM7.51595 4.83788V5.1034H6.61038V4.83788H7.51595Z" fill="white"/>
<path d="M8.22727 6.34996H7.85554V4.69813C7.85554 4.58447 7.87744 4.48897 7.92123 4.41164C7.96501 4.33339 8.02743 4.27423 8.10849 4.23416C8.18954 4.1941 8.28504 4.17407 8.39497 4.17407C8.43131 4.17407 8.46578 4.1764 8.49839 4.18106C8.53193 4.18572 8.565 4.19224 8.59761 4.20062L8.59062 4.48152C8.57292 4.47686 8.55335 4.4736 8.53193 4.47174C8.51143 4.46987 8.4886 4.46894 8.46345 4.46894C8.41314 4.46894 8.37028 4.47779 8.33488 4.49549C8.29948 4.5132 8.27246 4.53928 8.25383 4.57375C8.23613 4.60729 8.22727 4.64875 8.22727 4.69813V6.34996ZM8.53332 4.83788V5.1034H7.62775V4.83788H8.53332Z" fill="white"/>
<path d="M9.13005 5.14672V6.34996H8.76111V4.83788H9.11049L9.13005 5.14672ZM9.58982 4.8281L9.58423 5.17188C9.56374 5.16815 9.54045 5.16536 9.51436 5.16349C9.4892 5.16163 9.46545 5.1607 9.44309 5.1607C9.38626 5.1607 9.33641 5.16862 9.29356 5.18446C9.2507 5.19936 9.21483 5.22126 9.18595 5.25014C9.158 5.27902 9.13657 5.31442 9.12167 5.35635C9.10676 5.39734 9.09837 5.44392 9.09651 5.49609L9.01685 5.48631C9.01685 5.39035 9.02664 5.30138 9.0462 5.21939C9.06577 5.13741 9.09418 5.06567 9.13145 5.00418C9.16871 4.94269 9.2153 4.89518 9.2712 4.86164C9.32803 4.82716 9.39324 4.80993 9.46685 4.80993C9.48734 4.80993 9.50924 4.81179 9.53253 4.81552C9.55675 4.81831 9.57585 4.82251 9.58982 4.8281Z" fill="white"/>
<path d="M11.7238 5.68056H12.1081C12.0978 5.81658 12.0601 5.93723 11.9949 6.04251C11.9297 6.14686 11.8388 6.22884 11.7224 6.28847C11.6059 6.3481 11.4648 6.37791 11.2989 6.37791C11.1713 6.37791 11.0563 6.35555 10.9538 6.31083C10.8522 6.26518 10.7651 6.20043 10.6924 6.11658C10.6207 6.0318 10.5657 5.93025 10.5275 5.81193C10.4893 5.69267 10.4702 5.55898 10.4702 5.41085V5.25573C10.4702 5.10759 10.4898 4.9739 10.5289 4.85465C10.5681 4.7354 10.624 4.63385 10.6966 4.55C10.7702 4.46522 10.8583 4.4 10.9608 4.35435C11.0642 4.3087 11.1797 4.28587 11.3073 4.28587C11.4732 4.28587 11.6134 4.31662 11.728 4.37811C11.8426 4.43866 11.9315 4.52205 11.9949 4.62826C12.0583 4.73446 12.0964 4.85651 12.1095 4.9944H11.7252C11.7177 4.90868 11.6991 4.83601 11.6693 4.77639C11.6404 4.71676 11.5966 4.67158 11.5379 4.64083C11.4802 4.60916 11.4033 4.59332 11.3073 4.59332C11.2328 4.59332 11.1671 4.60729 11.1103 4.63524C11.0544 4.66319 11.0078 4.70512 10.9705 4.76102C10.9333 4.81598 10.9053 4.88493 10.8867 4.96784C10.8681 5.04983 10.8587 5.14486 10.8587 5.25293V5.41085C10.8587 5.51426 10.8671 5.60696 10.8839 5.68895C10.9007 5.77093 10.9268 5.84034 10.9622 5.89717C10.9976 5.954 11.0432 5.99733 11.0991 6.02714C11.155 6.05695 11.2216 6.07186 11.2989 6.07186C11.393 6.07186 11.4694 6.05695 11.5281 6.02714C11.5878 5.99733 11.6329 5.95354 11.6637 5.89578C11.6954 5.83801 11.7154 5.76628 11.7238 5.68056Z" fill="white"/>
<path d="M13.2107 6.02854V5.33119C13.2107 5.27995 13.2019 5.2357 13.1842 5.19843C13.1665 5.16116 13.1394 5.13228 13.1031 5.11179C13.0668 5.09129 13.0207 5.08104 12.9648 5.08104C12.9154 5.08104 12.8721 5.08943 12.8348 5.1062C12.7985 5.12297 12.7705 5.14672 12.7509 5.17747C12.7314 5.20728 12.7216 5.24175 12.7216 5.28088H12.3513C12.3513 5.21846 12.3662 5.1593 12.396 5.1034C12.4258 5.04657 12.4682 4.99626 12.5231 4.95247C12.579 4.90775 12.6457 4.87282 12.723 4.84766C12.8012 4.82251 12.8888 4.80993 12.9857 4.80993C13.1003 4.80993 13.2023 4.82949 13.2918 4.86862C13.3821 4.90682 13.4529 4.96458 13.5042 5.04191C13.5564 5.11924 13.5824 5.2166 13.5824 5.33399V5.9936C13.5824 6.06906 13.5871 6.13381 13.5964 6.18785C13.6067 6.24095 13.6216 6.28707 13.6411 6.3262V6.34996H13.2652C13.2475 6.31176 13.234 6.26331 13.2247 6.20462C13.2154 6.14499 13.2107 6.0863 13.2107 6.02854ZM13.2624 5.42902L13.2652 5.64842H13.0318C12.9741 5.64842 12.9233 5.65448 12.8795 5.66659C12.8357 5.67777 12.7999 5.69454 12.7719 5.7169C12.744 5.73833 12.723 5.76441 12.709 5.79516C12.695 5.82497 12.6881 5.85898 12.6881 5.89717C12.6881 5.93444 12.6964 5.96798 12.7132 5.99779C12.7309 6.02761 12.7561 6.05136 12.7887 6.06906C12.8222 6.08583 12.8613 6.09422 12.9061 6.09422C12.9713 6.09422 13.0281 6.08118 13.0766 6.05509C13.125 6.02807 13.1627 5.99546 13.1897 5.95727C13.2168 5.91907 13.2312 5.88273 13.2331 5.84826L13.3393 6.00757C13.3262 6.04577 13.3067 6.0863 13.2806 6.12916C13.2545 6.17201 13.221 6.21207 13.18 6.24934C13.139 6.28661 13.0896 6.31735 13.0318 6.34157C12.9741 6.3658 12.907 6.37791 12.8306 6.37791C12.7328 6.37791 12.6452 6.35834 12.5679 6.31921C12.4905 6.28008 12.4295 6.22651 12.3848 6.1585C12.3401 6.09049 12.3177 6.01316 12.3177 5.92652C12.3177 5.8464 12.3326 5.77559 12.3624 5.7141C12.3922 5.65261 12.4365 5.60091 12.4952 5.55898C12.5539 5.51613 12.6266 5.48398 12.7132 5.46255C12.8008 5.44019 12.9009 5.42902 13.0137 5.42902H13.2624Z" fill="white"/>
<path d="M14.284 5.14672V6.34996H13.915V4.83788H14.2644L14.284 5.14672ZM14.7438 4.8281L14.7382 5.17188C14.7177 5.16815 14.6944 5.16536 14.6683 5.16349C14.6431 5.16163 14.6194 5.1607 14.597 5.1607C14.5402 5.1607 14.4903 5.16862 14.4475 5.18446C14.4046 5.19936 14.3688 5.22126 14.3399 5.25014C14.3119 5.27902 14.2905 5.31442 14.2756 5.35635C14.2607 5.39734 14.2523 5.44392 14.2504 5.49609L14.1708 5.48631C14.1708 5.39035 14.1806 5.30138 14.2001 5.21939C14.2197 5.13741 14.2481 5.06567 14.2854 5.00418C14.3226 4.94269 14.3692 4.89518 14.4251 4.86164C14.482 4.82716 14.5472 4.80993 14.6208 4.80993C14.6413 4.80993 14.6632 4.81179 14.6865 4.81552C14.7107 4.81831 14.7298 4.82251 14.7438 4.8281Z" fill="white"/>
<path d="M15.8254 6.02854V4.20342H16.1971V6.34996H15.8617L15.8254 6.02854ZM14.8542 5.61209V5.58274C14.8542 5.46721 14.8672 5.3624 14.8933 5.2683C14.9203 5.17328 14.9594 5.09176 15.0107 5.02374C15.0619 4.95573 15.1239 4.90309 15.1965 4.86583C15.2701 4.82856 15.3535 4.80993 15.4467 4.80993C15.5371 4.80993 15.6158 4.8281 15.6829 4.86443C15.7509 4.90077 15.8086 4.95247 15.8562 5.01955C15.9046 5.08663 15.9433 5.16629 15.9721 5.25852C16.001 5.34982 16.022 5.45044 16.035 5.56038V5.64004C16.022 5.74718 16.001 5.84547 15.9721 5.93491C15.9433 6.02434 15.9046 6.1026 15.8562 6.16968C15.8086 6.23583 15.7509 6.28707 15.6829 6.32341C15.6149 6.35974 15.5352 6.37791 15.4439 6.37791C15.3517 6.37791 15.2687 6.35881 15.1951 6.32061C15.1225 6.28241 15.0605 6.22884 15.0093 6.1599C14.959 6.09096 14.9203 6.0099 14.8933 5.91674C14.8672 5.82357 14.8542 5.72202 14.8542 5.61209ZM15.2245 5.58274V5.61209C15.2245 5.6773 15.2301 5.73833 15.2413 5.79516C15.2524 5.85199 15.2706 5.9023 15.2958 5.94609C15.3209 5.98894 15.3531 6.02248 15.3922 6.0467C15.4322 6.07093 15.4807 6.08304 15.5375 6.08304C15.6102 6.08304 15.6698 6.0672 15.7164 6.03552C15.7639 6.00292 15.8007 5.95866 15.8268 5.90276C15.8529 5.84593 15.8697 5.78211 15.8771 5.71131V5.4919C15.8734 5.436 15.8636 5.3843 15.8478 5.33678C15.8329 5.28927 15.8114 5.24827 15.7835 5.2138C15.7565 5.17933 15.7229 5.15231 15.6829 5.13275C15.6428 5.11318 15.5953 5.1034 15.5403 5.1034C15.4835 5.1034 15.435 5.11598 15.395 5.14113C15.3549 5.16536 15.3223 5.19936 15.2972 5.24315C15.272 5.28694 15.2534 5.33771 15.2413 5.39548C15.2301 5.45324 15.2245 5.51566 15.2245 5.58274Z" fill="white"/>
</g>
<path fill-rule="evenodd" clip-rule="evenodd" d="M42.2747 8.10954C43.592 8.10954 44.6598 7.0417 44.6598 5.72445C44.6598 4.4072 43.592 3.33936 42.2747 3.33936C40.9575 3.33936 39.8896 4.4072 39.8896 5.72445C39.8896 7.0417 40.9575 8.10954 42.2747 8.10954ZM42.8032 4.59528L42.8089 5.20734C42.8096 5.28175 42.8101 5.35798 42.8087 5.42273C42.8081 5.45508 42.807 5.48267 42.8054 5.50454C42.804 5.5244 42.8025 5.53384 42.8022 5.53597L42.8022 5.53597L42.8022 5.53598C42.8022 5.53644 42.8021 5.53655 42.8022 5.53633C42.7816 5.62528 42.7181 5.68612 42.5255 5.72666C42.4924 5.73362 42.4461 5.73499 42.2744 5.73499C42.1026 5.73499 42.0563 5.73362 42.0232 5.72666C41.8306 5.68612 41.7671 5.62528 41.7465 5.53633C41.7466 5.53655 41.7466 5.53644 41.7465 5.53598C41.7462 5.53387 41.7447 5.52442 41.7433 5.50454C41.7418 5.48267 41.7407 5.45508 41.74 5.42273C41.7386 5.35798 41.7391 5.28175 41.7398 5.20734L41.7456 4.59528L41.2671 4.59136L41.2614 5.20342C41.2607 5.27741 41.2601 5.35956 41.2616 5.43144C41.263 5.49556 41.266 5.57517 41.2789 5.63074C41.3577 5.9719 41.6516 6.10689 41.9181 6.16299C42.0103 6.18239 42.1152 6.18233 42.2486 6.18226L42.2744 6.18225L42.3001 6.18226C42.4335 6.18233 42.5384 6.18239 42.6306 6.16299C42.8971 6.10689 43.191 5.9719 43.2698 5.63074C43.2827 5.57517 43.2857 5.49556 43.2871 5.43144C43.2886 5.35956 43.288 5.27741 43.2873 5.20342L43.2816 4.59136L42.8032 4.59528ZM43.288 6.8572V6.42331H41.2607V6.8572H43.288Z" fill="white"/>
</svg>
