<svg width="201" height="200" viewBox="0 0 201 200" fill="none" xmlns="http://www.w3.org/2000/svg">
<path d="M171.267 49.5473C171.299 49.2688 171.387 48.9997 171.524 48.7552C171.662 48.5108 171.846 48.296 172.067 48.1232C172.288 47.9503 172.541 47.8229 172.811 47.7482C173.081 47.6735 173.363 47.653 173.642 47.6879C179.454 48.4379 170.501 55.641 171.267 49.5473Z" stroke="#0F172A" stroke-width="1.56248" stroke-miterlimit="10"/>
<path d="M133.048 43.6406C133.083 43.3615 133.172 43.092 133.311 42.8475C133.45 42.603 133.636 42.3882 133.858 42.2156C134.08 42.0429 134.334 41.9157 134.605 41.8411C134.876 41.7666 135.159 41.7463 135.439 41.7813C141.251 42.5 132.298 49.7343 133.048 43.6406Z" fill="#0F172A"/>
<path d="M118.361 14.4383C118.397 14.154 118.49 13.8798 118.634 13.6318C118.777 13.3838 118.969 13.1669 119.197 12.9937C119.426 12.8206 119.686 12.6948 119.964 12.6235C120.241 12.5523 120.53 12.5372 120.814 12.5789C126.564 13.2977 117.689 20.532 118.361 14.4383Z" stroke="#0F172A" stroke-width="1.56248" stroke-miterlimit="10"/>
<path d="M107.485 186.734C100.907 187.14 94.3133 187.452 87.7039 187.499C85.2821 187.499 82.8602 187.499 80.454 187.499C72.0478 187.171 63.5636 186.984 55.1105 186.374C51.3605 186.093 47.595 185.827 43.8762 185.359C41.4856 185.062 39.095 184.702 36.7201 184.202C35.5314 183.931 34.3579 183.597 33.2045 183.202C32.0504 182.783 30.9365 182.26 29.8764 181.64C28.5639 180.843 28.9076 180.734 30.2045 180.952C31.5014 181.171 33.7982 181.281 36.3763 181.921C41.0805 182.896 45.8474 183.538 50.6418 183.843C55.4699 184.218 60.3448 184.452 65.2354 184.687C71.0947 184.968 77.2509 184.827 83.2352 184.937C89.7977 184.937 96.3914 184.702 102.985 184.296C107.048 184.031 111.094 183.749 115.141 183.39C121.282 182.874 127.454 182.312 133.532 181.609C138.219 181.062 142.907 180.327 147.594 179.671L150.719 179.234C154.563 178.749 155.813 178.843 156.735 179.578C156.948 179.724 157.147 179.892 157.328 180.078C157.766 180.687 156.25 181.359 153.453 181.843C145.157 183.265 136.266 184.312 127.485 185.202C120.891 185.874 114.251 186.421 107.626 186.906L107.485 186.734Z" fill="#0F172A"/>
<path d="M109.875 134.015C106.437 131.621 102.703 129.683 98.7662 128.25C94.9565 127.022 90.8365 127.171 87.1257 128.672C84.307 129.806 81.6322 131.269 79.157 133.031C76.8914 134.593 74.7039 136.156 72.5008 137.937C70.2977 139.718 68.0321 141.312 65.9071 143.062C61.6259 146.562 57.5322 150.328 53.5479 154.203C50.001 157.656 46.5323 161.249 43.1574 164.812C38.8605 169.499 34.7512 174.187 30.5012 178.874C29.2044 180.327 28.9387 179.765 29.3919 178.03C30.3233 175.299 31.7656 172.77 33.6418 170.577C37.9074 165.671 42.4542 160.999 47.0167 156.515C51.5792 152.031 56.2979 147.39 61.3447 143.187C64.3603 140.656 67.5946 138.171 70.7196 135.703C73.848 133.107 77.1528 130.732 80.6101 128.593C82.6001 127.444 84.6924 126.482 86.8601 125.718C89.0798 124.98 91.3965 124.575 93.735 124.515C96.081 124.539 98.4059 124.961 100.61 125.765C102.711 126.561 104.753 127.506 106.719 128.593C111.486 131.268 115.977 134.409 120.125 137.968C126.375 143.296 132.219 149.078 138.063 154.687C142.61 159.062 147.141 163.249 151.703 167.484L154.703 170.249C158.406 173.765 159.391 174.937 159.687 176.374C159.772 176.675 159.825 176.984 159.844 177.296C159.844 178.093 157.844 177.093 154.969 174.656C146.469 167.374 138.203 159.031 129.703 150.953C123.266 144.828 116.985 138.781 109.875 134.078V134.015Z" fill="#0F172A"/>
<path d="M23.7979 149.687C23.7979 145.844 23.7979 142.031 23.876 138.172C23.876 136.766 23.876 135.359 23.9697 133.969C24.2666 129.016 24.9228 124.141 25.3916 119.281C25.5947 117.109 25.7041 114.938 25.7666 112.797C25.7666 110.031 25.7666 107.281 26.0478 104.532C26.1416 103.672 26.6884 103.766 27.2666 104.532C28.0798 105.584 28.5539 106.859 28.6259 108.188C28.724 113.907 28.3424 119.625 27.4853 125.281C27.0322 128.656 26.9541 132.187 26.7978 135.641C26.6416 139.437 26.6416 143.265 26.6572 147.094C26.6572 149.453 26.6572 151.781 26.7978 154.172C26.9228 157.734 27.0947 161.312 27.4853 164.828C27.7822 167.562 28.2978 170.218 28.8134 172.875C28.9228 173.453 29.0478 174.031 29.1728 174.625C29.5634 176.812 29.4853 177.546 28.8134 178.156C28.6834 178.307 28.5367 178.444 28.3759 178.562C27.8759 178.875 27.1884 178.062 26.7353 176.453C25.4626 171.486 24.6519 166.412 24.3135 161.297C24.001 157.437 23.8604 153.484 23.751 149.687H23.7979Z" fill="#0F172A"/>
<path d="M160.063 148.265C159.984 144.703 159.828 141.109 159.625 137.515C159.625 136.218 159.359 134.906 159.281 133.593C159 128.906 158.906 124.219 158.984 119.531C158.984 117.453 158.984 115.375 158.984 113.281C158.984 111.969 158.984 110.641 158.984 109.328C158.984 108.016 159.219 106.703 159.438 105.391C159.578 104.578 160.047 104.703 160.563 105.391C161.278 106.432 161.723 107.635 161.859 108.891C162.063 114.234 162.078 119.515 161.859 124.875C161.884 128.15 162.092 131.42 162.484 134.672C162.766 138.297 162.995 141.942 163.172 145.609C163.281 147.843 163.328 150.093 163.375 152.343C163.375 155.75 163.375 159.187 163.219 162.578C163.109 165.218 163.109 167.828 162.813 170.484C162.813 171.062 162.672 171.64 162.578 172.234C162.487 172.689 162.367 173.138 162.219 173.577C162.089 173.884 161.921 174.173 161.719 174.437C161.452 174.817 161.049 175.08 160.594 175.171C160.406 175.234 160.212 175.275 160.016 175.296C159.422 175.296 159.141 174.312 159.188 172.796C159.563 168.374 159.922 163.703 160 158.921C160 155.359 160 151.765 159.875 148.171L160.063 148.265Z" fill="#0F172A"/>
<path d="M135.86 109.5C138.985 107.578 141.922 105.641 144.875 103.61C145.969 102.86 146.969 102.047 148 101.281C149.875 99.9533 151.734 98.6096 153.484 97.1721C154.359 96.4533 155.203 95.719 155.969 94.9533C156.298 94.6193 156.606 94.2644 156.891 93.8909C157.031 93.6877 157.187 93.3909 157.031 93.1409L156.812 92.844L156.406 92.1877C156.078 91.7815 155.797 91.3596 155.484 90.9534L153.625 88.5628L148.75 82.3128C147.734 81.0316 150.313 81.5316 152.453 83.6878C154.406 85.5628 156.312 87.4847 158.141 89.5003C158.359 89.7503 158.594 90.0003 158.797 90.2815L159.578 91.2971C159.979 91.7718 160.234 92.3525 160.312 92.969C160.33 93.6212 160.179 94.2669 159.875 94.844C159.75 95.1252 159.562 95.3908 159.422 95.6565C159.281 95.9221 159.156 96.0002 159.031 96.1721C158.906 96.344 158.516 96.7815 158.266 97.0471C157.774 97.5961 157.252 98.1178 156.703 98.6096C154.078 100.719 151.484 102.906 148.766 104.859C145.813 106.922 142.688 108.953 139.703 110.938L134.031 114.594C131.188 116.438 128.266 118.219 125.469 120.094C123.282 121.547 121.25 123.125 119.219 124.641C118.766 124.984 118.328 125.328 117.844 125.656C116.094 126.859 115.36 126.984 114.5 126.469C114.301 126.372 114.108 126.262 113.922 126.141C113.422 125.719 113.813 124.703 115.016 123.687C118.765 120.697 122.677 117.917 126.735 115.359L135.813 109.375L135.86 109.5Z" fill="#0F172A"/>
<path d="M48.563 114.984C45.0526 112.901 41.5787 110.708 38.1413 108.406C36.8913 107.578 35.5944 106.844 34.36 105.938C32.1423 104.394 30.0522 102.675 28.1101 100.797C27.8601 100.531 27.6101 100.266 27.3757 99.9689C27.045 99.5823 26.7617 99.1574 26.532 98.7033C26.3056 98.2591 26.198 97.7639 26.2195 97.2658C26.3006 96.7737 26.517 96.3139 26.8445 95.9377C27.3627 95.3331 27.9157 94.7593 28.5007 94.219L29.9538 92.8753L35.11 88.1878C37.2663 86.1566 39.4694 84.1566 41.5318 82.0941C42.1568 81.4691 42.4068 81.766 42.2193 82.641C41.8269 83.9722 41.1438 85.1996 40.2194 86.2347C38.2506 88.594 36.2194 90.9222 34.1569 93.0784C33.1257 94.1877 31.9851 95.1877 30.9382 96.2034C29.6101 97.6096 29.5007 97.2658 29.5945 97.7658C29.6146 97.8491 29.658 97.925 29.7195 97.9846C29.8359 98.1425 29.9611 98.2938 30.0945 98.4377C30.3807 98.7552 30.6832 99.0577 31.0007 99.344C31.6413 99.9221 32.3601 100.485 33.0788 101.031C34.5475 102.125 36.0944 103.156 37.6256 104.156C41.0006 106.422 44.4537 108.609 47.9537 110.734C50.1099 112.047 52.2817 113.333 54.4692 114.594C57.7817 116.484 61.1098 118.406 64.4848 120.141C67.1097 121.484 69.7816 122.625 72.4378 123.812C73.0315 124.078 73.6097 124.312 74.1878 124.594C76.3753 125.609 76.9221 126.156 76.9846 127.234C77.0076 127.458 77.0076 127.683 76.9846 127.906C76.9846 128.578 75.7503 128.719 74.0784 128.109C69.0031 126.133 64.0697 123.809 59.3129 121.156C55.6723 119.219 52.063 117.188 48.5162 115.063L48.563 114.984Z" fill="#0F172A"/>
<path d="M54.6874 61.0471C61.9373 60.0627 69.2497 59.3752 76.4215 58.7971C79.0621 58.5784 81.7027 58.2815 84.3433 58.1096C93.7182 57.469 102.999 57.1721 112.343 57.0159C116.484 57.0159 120.655 56.844 124.843 56.844C127.499 56.844 130.155 56.844 132.827 57.0627C134.155 57.1721 135.483 57.3127 136.827 57.5471C138.203 57.7487 139.548 58.1268 140.827 58.6721C141.687 59.0783 141.968 59.6408 141.78 59.719C141.593 59.7971 141.108 59.719 140.421 59.719C139.03 59.719 136.546 60.0002 133.577 59.9533C123.015 59.6565 112.265 59.9533 101.468 60.2502C94.9838 60.4221 88.2808 61.0158 81.6715 61.5471C74.4215 62.1096 67.156 62.7502 59.9373 63.6408C55.5184 64.1232 51.1272 64.8325 46.7812 65.7658C46.3749 65.8752 45.9687 65.9689 45.5937 66.0939L45.0312 66.2658L44.5781 66.422C44.3644 66.4869 44.1708 66.6052 44.0156 66.7658C43.9441 66.9822 43.9123 67.2099 43.9218 67.4376C43.9218 69.0001 43.9218 70.7814 43.9218 72.4532C44.0156 75.8438 44.1406 79.25 44.2812 82.6094C44.5156 87.8593 44.9531 92.9843 45.2343 98.2342C45.2343 99.3748 45.3593 100.5 45.4218 101.656C45.5625 105.937 45.3281 107.343 44.4218 108.25C44.243 108.467 44.0384 108.661 43.8125 108.828C43.125 109.156 42.7031 107.484 42.4844 104.39C41.8125 95.1874 41.0937 85.4375 40.7187 75.6094L40.5625 70.0939V67.0626C40.5857 66.6285 40.6591 66.1986 40.7812 65.7814C40.8685 65.3641 41.0623 64.9766 41.3437 64.6564C41.9394 64.0138 42.6939 63.5395 43.5312 63.2814C45.3918 62.6803 47.2923 62.2104 49.2187 61.8752C51.0624 61.5314 52.8905 61.2502 54.7186 60.969L54.6874 61.0471Z" fill="#0F172A"/>
<path d="M143.97 77.2816L144.063 82.8128C144.063 83.4847 144.188 84.1409 144.204 84.8128C144.204 87.2034 144.204 89.5002 144.423 91.9533C144.487 93.0006 144.607 94.0437 144.782 95.0783C145.1 96.3917 145.216 97.7457 145.126 99.0939C145.126 99.5314 144.517 99.547 143.892 99.2814C143.539 99.1407 143.218 98.9296 142.949 98.661C142.681 98.3923 142.47 98.0718 142.329 97.7189C141.805 94.9948 141.538 92.2274 141.532 89.4533C141.532 87.7815 141.204 86.0784 141.048 84.3909C140.892 82.7034 140.782 80.6566 140.72 78.7816L140.61 75.3129C140.61 73.5629 140.501 71.8129 140.438 70.0785C140.438 68.7348 140.095 67.4067 140.095 66.0629C140.095 65.7817 140.095 65.4848 140.095 65.188C140.095 64.0786 140.376 63.7348 141.032 63.5161C141.173 63.4552 141.32 63.4081 141.47 63.3755C141.954 63.2817 142.36 63.7348 142.595 64.5161C142.953 65.684 143.235 66.874 143.438 68.0786C143.61 69.2973 143.735 70.516 143.829 71.7504L144.063 77.2816H143.97Z" fill="#0F172A"/>
<path d="M96.8752 38.1415C95.3225 38.3928 93.8353 38.9505 92.5002 39.7821C90.8831 40.6597 89.318 41.6301 87.8128 42.6883C86.6878 43.4539 85.6565 44.3446 84.5472 45.1414C80.641 47.9643 76.7764 50.907 72.9535 53.9695C71.2661 55.3288 69.6254 56.7507 67.9848 58.1569C66.9223 59.0319 65.8599 59.9382 64.7349 60.7819C63.5848 61.6913 62.305 62.4234 60.938 62.9537C60.4068 63.11 60.0787 62.9537 60.0943 62.7662C60.1627 62.4315 60.284 62.1097 60.4537 61.8131C60.9583 60.6799 61.6925 59.6637 62.6099 58.8288C66.6567 55.1101 70.9848 51.4695 75.5473 48.0476C78.2972 46.032 80.891 43.5946 83.7191 41.5008C86.8325 39.0677 90.2265 37.0166 93.8283 35.3915C94.4716 35.145 95.1357 34.9567 95.8127 34.829C96.1789 34.7648 96.5502 34.7335 96.922 34.7353C97.3068 34.732 97.6903 34.7792 98.0627 34.8759C99.3207 35.2282 100.513 35.7823 101.594 36.5165C104.601 38.5691 107.414 40.8912 110 43.4539C112.031 45.3445 114.094 47.1414 116.047 49.0945C116.484 49.5164 116.922 49.907 117.328 50.3757C118.797 52.1101 119.047 52.8445 118.641 53.782C118.564 54.005 118.464 54.2197 118.344 54.4226C117.922 55.0319 116.906 54.6882 115.687 53.6101C112.063 50.4851 108.641 46.7664 104.922 43.4696C103.579 42.2582 102.17 41.1211 100.703 40.0633C100.014 39.5785 99.2941 39.14 98.547 38.7509C98.2285 38.5977 97.8995 38.4672 97.5627 38.3602L97.1408 38.2352C97.0634 38.2508 96.9838 38.2508 96.9064 38.2352L96.8752 38.1415Z" fill="#0F172A"/>
<path d="M102.875 80.8905L93.922 81.2499L90.6564 81.4374C86.8126 81.5937 82.9533 81.578 79.1096 81.6405L73.9378 81.703C71.7181 81.8769 69.4852 81.7561 67.2972 81.3437C66.5785 81.1249 66.8441 80.8749 67.4691 80.6718C68.3765 80.3616 69.3235 80.1827 70.2816 80.1405C74.6409 79.9687 79.0627 79.5468 83.5158 79.4374C86.1877 79.3437 88.9532 79.0624 91.672 78.8749L100.688 78.3281L106.234 78.0156C109.031 77.8281 111.844 77.7187 114.625 77.5156C116.797 77.3593 118.89 77.0156 121.047 76.8124C121.515 76.8124 121.984 76.6875 122.453 76.6562C124.25 76.5781 124.812 76.7656 125.187 77.5468C125.314 77.7262 125.419 77.9203 125.5 78.1249C125.672 78.7343 124.953 79.2499 123.687 79.4374C119.937 80.0312 115.875 80.328 111.922 80.578C108.922 80.7655 105.906 80.8437 102.906 80.9999L102.875 80.8905Z" fill="#0F172A"/>
<path d="M100.204 93.0468H96.7973C96.3755 93.0468 95.9692 93.125 95.5474 93.0468C94.0786 93.0468 92.5943 92.8906 91.1255 92.8125C90.4693 92.8125 89.8287 92.8125 89.1724 92.8125C88.3438 92.9089 87.505 92.872 86.6881 92.7031C86.1724 92.5625 86.8912 90.7969 87.8131 90.75C89.4698 90.6695 91.1302 90.706 92.7818 90.8594C93.8255 90.9006 94.8709 90.8535 95.9067 90.7187L99.2661 90.625H101.375C102.438 90.625 103.516 90.625 104.5 90.5156C105.485 90.4062 106.063 90.2344 106.969 90.1094C107.157 90.1094 107.328 90.0312 107.516 90.0156C108.188 90.0156 108.407 90.1562 108.532 90.8906C108.532 91.0469 108.532 91.2187 108.532 91.375C108.567 91.6234 108.514 91.8764 108.383 92.0903C108.252 92.3043 108.05 92.4657 107.813 92.5468C106.381 92.9254 104.904 93.1094 103.422 93.0937L100.047 93.1718L100.204 93.0468Z" fill="#0F172A"/>
<path d="M109.516 187.952C104.126 188.281 98.7353 188.546 93.3291 188.718C91.3448 188.718 89.376 188.89 87.4073 188.906C80.423 188.906 73.5012 188.577 66.5794 188.296L57.3607 187.952C53.42 187.971 49.4862 187.621 45.6108 186.906C44.4077 186.64 44.5952 186.359 45.6108 186.015C46.1421 185.827 46.8921 185.64 47.7827 185.421C48.2615 185.305 48.7467 185.216 49.2358 185.156C49.7514 185.156 50.2983 185.156 50.7983 185.156L74.7356 185.984C79.5636 186.202 84.5323 185.984 89.4229 185.765C94.8135 185.531 100.22 185.296 105.626 184.937C108.938 184.702 112.266 184.468 115.595 184.187C120.61 183.765 125.673 183.327 130.641 182.624C134.501 182.14 138.266 181.437 142.063 180.781C142.891 180.64 143.626 180.468 144.547 180.343C147.672 179.859 148.704 179.953 149.516 180.827C149.713 181 149.892 181.194 150.047 181.406C150.454 182.109 149.25 182.968 146.922 183.406C139.902 184.865 132.801 185.908 125.657 186.531C120.251 187.093 114.813 187.515 109.376 187.921L109.516 187.952Z" fill="#0F172A"/>
<path d="M54.4387 117.281L47.5951 113.031C46.7669 112.499 45.892 112.062 45.0638 111.468C42.1732 109.562 39.3139 107.609 36.5483 105.515C35.2983 104.64 34.0952 103.64 32.8765 102.718C32.1265 102.078 31.314 101.515 30.6109 100.796L29.5327 99.7652C29.189 99.3902 28.8765 98.9839 28.564 98.5777C28.2515 98.1714 28.564 97.9058 29.189 98.0152C30.0666 98.1856 30.9009 98.531 31.6421 99.0308C33.2046 100.078 34.9702 101.015 36.6577 102C38.3452 102.984 39.892 104.203 41.4857 105.39C43.4562 106.832 45.5063 108.163 47.6263 109.374C49.9075 110.791 52.194 112.192 54.4856 113.578L58.7512 116.109C60.9387 117.343 63.0949 118.624 65.3136 119.749C67.048 120.609 68.8292 121.312 70.5948 122.031L71.7511 122.515C73.1886 123.156 73.5011 123.64 73.4073 124.562C73.4235 124.765 73.4235 124.968 73.4073 125.171C73.2667 125.796 72.4073 126.062 71.298 125.718C67.8819 124.571 64.581 123.107 61.4387 121.343C59.0481 120.077 56.7512 118.702 54.3606 117.359L54.4387 117.281Z" fill="#0F172A"/>
<path d="M132.702 110.187C134.89 108.828 137.077 107.437 139.233 106.015C140.015 105.484 140.796 104.89 141.53 104.453C144.28 102.609 147.03 100.75 149.702 98.7966C150.843 97.8904 152.014 96.9997 153.077 96.031C153.757 95.4208 154.404 94.774 155.014 94.0935C155.567 93.561 155.98 92.9011 156.218 92.1717C156.218 91.9998 156.436 91.4998 157.046 91.9998C157.194 92.1993 157.301 92.4265 157.36 92.6681C157.419 92.9096 157.429 93.1605 157.389 93.406C157.323 93.9872 157.131 94.5471 156.827 95.0466C155.747 96.785 154.479 98.3989 153.046 99.8591C151.591 101.192 150.023 102.394 148.358 103.453C146.358 104.703 144.499 106.265 142.53 107.625C140.561 108.984 138.171 110.562 135.968 111.984L131.874 114.531C129.827 115.859 127.733 117.125 125.733 118.5C124.171 119.562 122.765 120.765 121.28 121.906C120.952 122.156 120.64 122.421 120.296 122.656C119.046 123.546 118.484 123.562 117.749 123.015C117.58 122.907 117.418 122.787 117.265 122.656C116.812 122.203 116.999 121.343 117.827 120.578C120.42 118.281 123.189 116.192 126.108 114.328L132.655 110.062L132.702 110.187Z" fill="#0F172A"/>
<path d="M59.1878 145.64L55.0315 149.109L50.9691 152.718L48.1254 155.468C44.7504 158.593 41.3598 161.89 38.1723 165.296C36.7661 166.859 35.3911 168.421 34.0943 169.984C32.4877 172.083 30.7718 174.096 28.9537 176.015C28.3756 176.593 28.0631 176.218 28.0787 175.359C28.161 174.086 28.5995 172.862 29.3443 171.827C32.7394 167.548 36.4307 163.512 40.3911 159.749C42.766 157.499 45.0785 154.968 47.5316 152.703C48.8597 151.421 50.2347 150.187 51.6253 148.984C53.0159 147.781 54.4066 146.546 55.8128 145.312C57.5315 143.749 59.344 142.437 61.1096 141.015C63.8127 138.906 66.6096 136.875 69.4064 134.921C71.5314 133.359 73.6876 131.875 75.8438 130.359L77.3126 129.437C79.1876 128.343 79.875 128.14 80.5938 128.515C80.7594 128.58 80.9168 128.664 81.0625 128.765C81.4844 129.109 80.9219 129.921 79.6563 130.812C75.8282 133.39 71.8439 136.171 67.8752 138.984L63.5158 142.234L59.2346 145.64H59.1878Z" fill="#0F172A"/>
<path d="M40.4707 98.4375C40.4707 97.25 40.4707 96.0625 40.4707 94.8907C40.4707 94.4532 40.4707 94.0313 40.4707 93.5938C40.4707 92.0313 40.6113 90.5782 40.627 89.0626C40.627 88.3907 40.627 87.7189 40.5332 87.0626C40.3978 86.2209 40.3558 85.3667 40.4082 84.5158C40.4082 83.9689 41.9707 84.5158 42.0644 85.5001C42.3457 87.2351 42.4556 88.9936 42.3926 90.7501C42.3926 91.8126 42.5176 92.9063 42.5488 93.9688L42.6894 97.4688C42.6894 98.1875 42.6894 98.9219 42.6894 99.6406C42.6894 100.734 42.7988 101.844 42.9394 102.922C43.0801 103.75 43.3144 104.484 43.5019 105.359C43.5019 105.547 43.58 105.719 43.6113 105.906C43.6113 106.578 43.5332 106.828 43.0176 107.047C42.9092 107.112 42.7939 107.164 42.6738 107.203C42.4587 107.254 42.2324 107.223 42.0389 107.116C41.8454 107.009 41.6986 106.834 41.6269 106.625C40.8769 105.176 40.4858 103.569 40.4863 101.937C40.3926 100.734 40.3926 99.5312 40.3613 98.3438L40.4707 98.4375Z" fill="#0F172A"/>
</svg>
